Coordinates
version=1
nRows=17
nColumns=38
inDegrees=no

Units are S.I. units (second, meters, Newtons, ...)
If the header above contains a line with 'inDegrees', this indicates whether rotational values are in degrees (yes) or radians (no).

endheader
time	pelvis_tilt	pelvis_list	pelvis_rotation	pelvis_tx	pelvis_ty	pelvis_tz	hip_flexion_r	hip_adduction_r	hip_rotation_r	knee_angle_r	ankle_angle_r	subtalar_angle_r	mtp_angle_r	hip_flexion_l	hip_adduction_l	hip_rotation_l	knee_angle_l	ankle_angle_l	subtalar_angle_l	mtp_angle_l	lumbar_extension	lumbar_bending	lumbar_rotation	arm_flex_r	arm_add_r	arm_rot_r	elbow_flex_r	pro_sup_r	wrist_flex_r	wrist_dev_r	arm_flex_l	arm_add_l	arm_rot_l	elbow_flex_l	pro_sup_l	wrist_flex_l	wrist_dev_l
0.55	0.39668	1.50794	-2.02253	1.00714	1.21741	0.910165	-0.334627	0.00395096	-0.246139	0.168442	0.329013	0	0	0.349883	0.00123479	-0.239476	0.0744164	0.108041	0	0	-0.216953	-0.0554457	-0.0736457	-0.205142	-0.234857	0.114829	0.814465	0.350343	0	0	-0.1809	-0.291031	0.328629	0.620589	1.32909	0	0
0.56	0.387723	1.50843	-2.01986	1.00705	1.20485	0.908781	-0.337491	-0.00187441	-0.248353	0.190772	0.33266	0	0	0.368396	-0.00618973	-0.262575	0.144441	0.136447	0	0	-0.213359	-0.058916	-0.0660427	-0.208844	-0.233428	0.114935	0.809086	0.349553	0	0	-0.18399	-0.290769	0.323791	0.618405	1.33903	0	0
0.57	0.393229	1.50836	-2.03288	1.00704	1.19188	0.907586	-0.33968	-0.0101461	-0.249587	0.21518	0.334508	0	0	0.378523	-0.0105317	-0.275147	0.195059	0.154739	0	0	-0.208813	-0.0634212	-0.0574401	-0.213349	-0.232214	0.114675	0.8029	0.351485	0	0	-0.187977	-0.290453	0.318951	0.616874	1.34556	0	0
0.58	0.421235	1.50587	-2.06763	1.00746	1.17879	0.906845	-0.342251	-0.0218401	-0.251737	0.24208	0.333191	0	0	0.377403	-0.00750741	-0.27381	0.218456	0.152086	0	0	-0.205967	-0.0698461	-0.0500281	-0.217656	-0.231426	0.114936	0.796573	0.353238	0	0	-0.191395	-0.290376	0.315544	0.615907	1.3471	0	0
0.59	0.466796	1.50392	-2.11811	1.00828	1.16558	0.906221	-0.340969	-0.0353996	-0.256821	0.27459	0.33058	0	0	0.37476	-0.00207431	-0.272535	0.231445	0.131949	0	0	-0.201668	-0.0765922	-0.0448268	-0.22151	-0.229979	0.114352	0.789514	0.354471	0	0	-0.19512	-0.290048	0.310961	0.615111	1.34867	0	0
0.6	0.524062	1.50178	-2.17941	1.00937	1.15223	0.905793	-0.337216	-0.0505753	-0.261604	0.310529	0.324771	0	0	0.370067	0.00410023	-0.274565	0.239114	0.100302	0	0	-0.196579	-0.0839164	-0.0408288	-0.225009	-0.227692	0.112034	0.781917	0.353953	0	0	-0.199093	-0.289816	0.305535	0.614585	1.35009	0	0
0.61	0.585646	1.49959	-2.24393	1.01061	1.13875	0.905524	-0.331271	-0.06629	-0.265155	0.349183	0.314752	0	0	0.367082	0.00873835	-0.281669	0.253711	0.0757898	0	0	-0.19082	-0.0914139	-0.0380181	-0.228517	-0.225229	0.109899	0.773822	0.352909	0	0	-0.203195	-0.290148	0.300112	0.614708	1.3511	0	0
0.62	0.646962	1.49826	-2.30691	1.01191	1.12519	0.90533	-0.321885	-0.0814067	-0.267562	0.391933	0.299488	0	0	0.370634	0.00957018	-0.2947	0.284784	0.0679486	0	0	-0.183766	-0.0983189	-0.0368057	-0.231705	-0.222727	0.109504	0.764512	0.352929	0	0	-0.208129	-0.291392	0.294178	0.616515	1.35198	0	0
0.63	0.681034	1.49592	-2.34108	1.01324	1.11154	0.905657	-0.311554	-0.0953497	-0.266914	0.438394	0.275977	0	0	0.37455	0.00852627	-0.304881	0.323446	0.0702016	0	0	-0.178825	-0.10426	-0.037661	-0.233985	-0.21998	0.110683	0.754459	0.355193	0	0	-0.21317	-0.293053	0.288126	0.619313	1.34985	0	0
0.64	0.709791	1.49124	-2.36811	1.01483	1.09794	0.90657	-0.29892	-0.111543	-0.267769	0.491154	0.243721	0	0	0.375244	0.0102818	-0.309812	0.360033	0.075733	0	0	-0.176329	-0.111536	-0.040415	-0.235161	-0.21631	0.111568	0.743089	0.356543	0	0	-0.216994	-0.296057	0.284809	0.623018	1.34422	0	0
0.65	0.755373	1.48546	-2.40968	1.01673	1.08444	0.907762	-0.281983	-0.130135	-0.26944	0.549034	0.201798	0	0	0.373166	0.0163814	-0.311226	0.389969	0.0841931	0	0	-0.173788	-0.120591	-0.0458	-0.23569	-0.212168	0.113636	0.730574	0.35719	0	0	-0.22025	-0.300455	0.283401	0.627767	1.33717	0	0
0.66	0.813669	1.47993	-2.4619	1.01891	1.0711	0.909052	-0.258879	-0.149805	-0.270192	0.611622	0.147911	0	0	0.368491	0.0259216	-0.310621	0.410897	0.0934675	0	0	-0.170236	-0.130102	-0.053508	-0.235769	-0.208105	0.11754	0.71787	0.356661	0	0	-0.223068	-0.305967	0.283648	0.633691	1.32822	0	0
0.67	0.880652	1.47529	-2.52098	1.02133	1.05787	0.910248	-0.230621	-0.169421	-0.269681	0.676767	0.083196	0	0	0.361698	0.0376649	-0.309064	0.422823	0.101163	0	0	-0.16507	-0.139052	-0.0630049	-0.236499	-0.204652	0.122899	0.70685	0.353785	0	0	-0.225745	-0.312429	0.285213	0.64115	1.31872	0	0
0.68	0.946896	1.47193	-2.57804	1.02398	1.0448	0.911271	-0.198836	-0.187804	-0.267788	0.742695	0.0132146	0	0	0.352997	0.0502318	-0.306031	0.427607	0.108099	0	0	-0.158885	-0.14616	-0.0734847	-0.238676	-0.202346	0.128709	0.699451	0.34917	0	0	-0.228077	-0.319386	0.287739	0.650359	1.30917	0	0
0.69	1.00461	1.46983	-2.62531	1.02686	1.03197	0.912149	-0.165523	-0.203913	-0.264181	0.80781	-0.0568065	0	0	0.34256	0.0629977	-0.300265	0.427542	0.115677	0	0	-0.152955	-0.150646	-0.0848315	-0.242287	-0.201244	0.133626	0.696128	0.345664	0	0	-0.229153	-0.32628	0.290623	0.660083	1.30336	0	0
0.7	1.05708	1.46844	-2.66799	1.0297	1.01926	0.912955	-0.130243	-0.218185	-0.257106	0.871558	-0.126736	0	0	0.330306	0.0753715	-0.293636	0.423509	0.123387	0	0	-0.14661	-0.153756	-0.0951642	-0.246884	-0.200951	0.138281	0.694943	0.342356	0	0	-0.229414	-0.333552	0.294602	0.670763	1.29751	0	0
0.71	1.09069	1.46671	-2.69269	1.03243	1.00683	0.913905	-0.0954196	-0.230871	-0.248417	0.932254	-0.193778	0	0	0.315672	0.0871295	-0.285164	0.418047	0.130619	0	0	-0.142514	-0.155864	-0.104592	-0.25145	-0.201289	0.142321	0.695784	0.339321	0	0	-0.228044	-0.341289	0.299559	0.681849	1.29096	0	0
